<svg id="Groupe_8719" data-name="Groupe 8719" xmlns="http://www.w3.org/2000/svg" xmlns:xlink="http://www.w3.org/1999/xlink" width="44.801" height="44.806" viewBox="0 0 44.801 44.806">
  <defs>
    <clipPath id="clip-path">
      <rect id="Rectangle_1335" data-name="Rectangle 1335" width="44.801" height="44.806" fill="#354bcf"/>
    </clipPath>
  </defs>
  <g id="Groupe_8676" data-name="Groupe 8676" clip-path="url(#clip-path)">
    <path id="Tracé_57219" data-name="Tracé 57219" d="M37.772,29.965a4.662,4.662,0,0,1,3.45,1.553,3.442,3.442,0,0,1,.226.269.861.861,0,0,0,1.207.165,1,1,0,0,0,.08-.069,1.052,1.052,0,0,0,.089-1.4c-.1-.124-.2-.245-.312-.363a6.4,6.4,0,0,0-4.739-2.136A6.95,6.95,0,0,0,31.1,34.542H28.835a.893.893,0,0,0,0,1.781h2.234v1.741H28.835a.893.893,0,0,0,0,1.781H31.1A6.951,6.951,0,0,0,37.772,46.4a6.479,6.479,0,0,0,5.051-2.5,1.052,1.052,0,0,0-.089-1.4.861.861,0,0,0-1.218.017.888.888,0,0,0-.069.08,4.718,4.718,0,0,1-3.676,1.817,5.043,5.043,0,0,1-4.843-4.575h5.678a.893.893,0,0,0,0-1.781H32.891V36.328h5.716a.893.893,0,0,0,0-1.781H32.939a5.043,5.043,0,0,1,4.833-4.583" transform="translate(-7.327 -7.321)" fill="#354bcf"/>
    <path id="Tracé_57220" data-name="Tracé 57220" d="M35.155,20.236A14.932,14.932,0,1,0,50.092,35.165,14.932,14.932,0,0,0,35.155,20.236Zm0,27.334a12.4,12.4,0,1,1,12.4-12.4,12.4,12.4,0,0,1-12.4,12.4Z" transform="translate(-5.291 -5.293)" fill="#354bcf"/>
    <path id="Tracé_57221" data-name="Tracé 57221" d="M15.68,44.8a34.767,34.767,0,0,0,5.468-.431,17.038,17.038,0,0,1-2.842-2.153c-.834.061-1.709.1-2.627.1-8.172,0-13.186-2.691-13.186-4.609V34.027a11.929,11.929,0,0,0,1.738.985A27.375,27.375,0,0,0,14.59,37.138a16.773,16.773,0,0,1-.966-2.54,23.811,23.811,0,0,1-8.342-1.838c-1.749-.807-2.793-1.827-2.793-2.691V26.376a11.89,11.89,0,0,0,1.738.985,25.83,25.83,0,0,0,8.727,2.04,16.924,16.924,0,0,1,.25-2.486A23.358,23.358,0,0,1,5.282,25.1c-1.749-.807-2.793-1.828-2.793-2.691V18.726a11.881,11.881,0,0,0,1.735.982,27.617,27.617,0,0,0,10.742,2.153,16.969,16.969,0,0,1,1.658-2.5c-.315,0-.627.021-.944.021a25.712,25.712,0,0,1-10.4-1.913c-1.749-.807-2.793-1.827-2.793-2.691v-3.7a25.14,25.14,0,0,0,13.186,3.132A25.142,25.142,0,0,0,28.86,11.076v1.905c.331-.018.662-.032,1-.032.5,0,1,.027,1.493.069V7.1c0-4.609-8.073-7.1-15.68-7.1S0,2.494,0,7.107v30.6c0,4.612,8.073,7.1,15.68,7.1m0-42.307c8.172,0,13.186,2.691,13.186,4.612s-5.018,4.612-13.186,4.612S2.494,9.031,2.494,7.11,7.513,2.5,15.68,2.5" transform="translate(0 0)" fill="#354bcf"/>
  </g>
</svg>
