<svg xmlns="http://www.w3.org/2000/svg" xmlns:xlink="http://www.w3.org/1999/xlink" width="37.641" height="34.443" viewBox="0 0 37.641 34.443">
  <defs>
    <clipPath id="clip-path">
      <rect id="Rectangle_1348" data-name="Rectangle 1348" width="37.641" height="34.443" transform="translate(0 0)" fill="#354bcf" stroke="#354bcf" stroke-width="0.2"/>
    </clipPath>
  </defs>
  <g id="Groupe_8723" data-name="Groupe 8723" transform="translate(0 0)">
    <g id="Groupe_8694" data-name="Groupe 8694" transform="translate(0 0)" clip-path="url(#clip-path)">
      <path id="Tracé_57258" data-name="Tracé 57258" d="M8.647,41.3H13.6a.6.6,0,0,0,.6-.6V25.437a.6.6,0,0,0-.6-.6H8.647a.6.6,0,0,0-.6.6V40.7a.6.6,0,0,0,.6.6m.6-15.265H13V40.1H9.249Z" transform="translate(-3.647 -11.259)" fill="#354bcf" stroke="#354bcf" stroke-width="0.2"/>
      <path id="Tracé_57259" data-name="Tracé 57259" d="M8.647,41.3H13.6a.6.6,0,0,0,.6-.6V25.437a.6.6,0,0,0-.6-.6H8.647a.6.6,0,0,0-.6.6V40.7A.6.6,0,0,0,8.647,41.3Zm.6-15.265H13V40.1H9.249Z" transform="translate(-3.647 -11.259)" fill="#354bcf" stroke="#354bcf" stroke-miterlimit="10" stroke-width="0.2"/>
      <path id="Tracé_57260" data-name="Tracé 57260" d="M30.131,33.536A4.727,4.727,0,1,0,25.4,28.809a4.732,4.732,0,0,0,4.727,4.727m0-8.251a3.524,3.524,0,1,1-3.524,3.524,3.528,3.528,0,0,1,3.524-3.524" transform="translate(-11.516 -10.917)" fill="#354bcf" stroke="#354bcf" stroke-width="0.2"/>
      <path id="Tracé_57261" data-name="Tracé 57261" d="M30.131,33.536A4.727,4.727,0,1,0,25.4,28.809,4.732,4.732,0,0,0,30.131,33.536Zm0-8.251a3.524,3.524,0,1,1-3.524,3.524A3.528,3.528,0,0,1,30.131,25.285Z" transform="translate(-11.516 -10.917)" fill="#354bcf" stroke="#354bcf" stroke-miterlimit="10" stroke-width="0.2"/>
      <path id="Tracé_57262" data-name="Tracé 57262" d="M24.5,46.435H43.473a.6.6,0,0,0,.6-.6V36.758a.6.6,0,0,0-.86-.542L24.236,45.292a.6.6,0,0,0,.259,1.144m18.376-8.723v7.521H27.147Z" transform="translate(-10.832 -16.391)" fill="#354bcf" stroke="#354bcf" stroke-width="0.2"/>
      <path id="Tracé_57263" data-name="Tracé 57263" d="M24.5,46.435H43.473a.6.6,0,0,0,.6-.6V36.758a.6.6,0,0,0-.86-.542L24.236,45.292a.6.6,0,0,0,.259,1.144Zm18.376-8.723v7.521H27.147Z" transform="translate(-10.832 -16.391)" fill="#354bcf" stroke="#354bcf" stroke-miterlimit="10" stroke-width="0.2"/>
      <path id="Tracé_57264" data-name="Tracé 57264" d="M36.993,9.678h-7.5a.622.622,0,0,0-.043-.057L19.238.649a.6.6,0,0,0-.794,0L8.234,9.621a.622.622,0,0,0-.043.057H1.1a.6.6,0,0,0-.6.6V33.795a.6.6,0,0,0,.6.6H36.993a.6.6,0,0,0,.6-.6V10.28a.6.6,0,0,0-.6-.6M18.841,1.9l8.85,7.777H9.991Zm17.55,31.292H1.7V10.881H36.391Z" transform="translate(-0.227 -0.227)" fill="#354bcf" stroke="#354bcf" stroke-width="0.2"/>
      <path id="Tracé_57265" data-name="Tracé 57265" d="M36.993,9.678h-7.5a.622.622,0,0,0-.043-.057L19.238.649a.6.6,0,0,0-.794,0L8.234,9.621a.622.622,0,0,0-.043.057H1.1a.6.6,0,0,0-.6.6V33.795a.6.6,0,0,0,.6.6H36.993a.6.6,0,0,0,.6-.6V10.28A.6.6,0,0,0,36.993,9.678ZM18.841,1.9l8.85,7.777H9.991Zm17.55,31.292H1.7V10.881H36.391Z" transform="translate(-0.227 -0.227)" fill="#354bcf" stroke="#354bcf" stroke-miterlimit="10" stroke-width="0.2"/>
    </g>
  </g>
</svg>
