<svg viewBox="52.961 53.661 47.717 51.757" xmlns="http://www.w3.org/2000/svg" style="fill: rgb(53, 75, 207);">
  <defs>
    <clipPath id="clip-SVG_29">
      <rect width="58" height="58" style="fill: rgb(53, 75, 207);"></rect>
    </clipPath>
  </defs>
  <g id="SVG_29" data-name="SVG – 29" clip-path="url(#clip-SVG_29)" transform="matrix(1, 0, 0, 1, 48.286563, 50.653212)">
    <g id="Groupe_9018" data-name="Groupe 9018" transform="translate(0.335 -2.893)">
      <g id="Groupe_9025" data-name="Groupe 9025" transform="translate(-4 -4)">
        <path id="Tracé_57223" data-name="Tracé 57223" d="M42.946,24.309a.827.827,0,0,0-.514-.408,16.886,16.886,0,0,0-17.413,7.226L22.6,34.66v-14.1l1.716.525c4.28,1.317,7.348-3.223,7.919-4.147l.224-.384C37.7,7.176,33.679,2.776,33.505,2.594a.817.817,0,0,0-.411-.234,7.92,7.92,0,0,0-5.72,1.532l-1.1.726L25.54,3.527A7.292,7.292,0,0,0,22.012.536a.834.834,0,0,0-.481,0A7.329,7.329,0,0,0,18,3.528l-.736,1.09-1.1-.726C13.059,1.836,10.7,2.3,10.446,2.361a.817.817,0,0,0-.411.234c-.176.184-4.24,4.609,1.131,14.1,1.234,2.171,4.323,5.539,8.062,4.387l1.718-.529v14.11l-2.422-3.535A16.812,16.812,0,0,0,1.1,23.9a.826.826,0,0,0-.555,1.06A18.151,18.151,0,0,0,18.192,37.7c.444,0,.89-.018,1.326-.052l1.429-.109V48.674a.825.825,0,0,0,1.65,0V37.538l1.428.109c.437.034.883.052,1.327.052A18.15,18.15,0,0,0,43,24.964a.826.826,0,0,0-.054-.656m-25.819,11.7A16.039,16.039,0,0,1,3.222,27.1l-.96-1.9L4.5,25.173c3.392,0,9.7,1.153,13.871,8.877l1.125,2.087ZM26.9,17.822c.222-.431.454-.876.521-1.07a5.514,5.514,0,0,0,.2-.751c.032-.135.064-.275.092-.41l.035-.184c.023-.116.043-.222.058-.323l.07-.48.091-1.3c0-.579-.027-1.229-.075-1.919-.008-.119-.019-.232-.032-.345l-.022-.229c-.044-.471-.094-.887-.153-1.274-.03-.2-.061-.392-.1-.582-.07-.39-.156-.786-.26-1.212l-.048-.2c-.023-.1-.04-.176-.061-.249l-.261-.958.688-.624a8.186,8.186,0,0,1,3.876-1.752l.99-.131.4.914c.893,2.033,1.3,5.615-1.819,11.134a7.86,7.86,0,0,1-1.032,1.559,16.981,16.981,0,0,1-2.369,2.1l-.062.025a1.657,1.657,0,0,1-.612.156.646.646,0,0,1-.344-.09.739.739,0,0,1-.31-.616c-.022-.1.052-.268.533-1.2m-8.943,1.917a.572.572,0,0,1-.561.431,1.678,1.678,0,0,1-.476-.1c-.072-.022-.147-.046-.223-.064l-.067-.032a33.164,33.164,0,0,1-3.047-2.607,7.311,7.311,0,0,1-.9-1.349c-.028-.052-.05-.092-.066-.12-3.375-5.96-2.7-9.542-2-11.146l.4-.91L12,3.97a8.125,8.125,0,0,1,3.9,1.746l.713.547-.245.866c-.017.078-.029.13-.043.179-.019.068-.038.152-.057.235l-.051.212c-.1.408-.186.8-.258,1.2-.036.2-.067.393-.1.592-.059.4-.109.814-.152,1.27L15.686,11c-.015.154-.027.27-.035.39-.049.7-.073,1.343-.073,1.957l.09,1.277a8.658,8.658,0,0,0,.761,2.488,14.468,14.468,0,0,0,1.342,2.163c.224.308.258.356.191.467m3.819-.074a4.147,4.147,0,0,1-1.757-.368c-2.267-1.093-2.786-4.66-2.795-5.941A19.075,19.075,0,0,1,18.354,6.4a8.383,8.383,0,0,1,2.612-3.686l.8-.608.8.6a8.312,8.312,0,0,1,2.624,3.688,19.039,19.039,0,0,1,1.127,6.952c0,.126-.006.3-.022.5-.079,1-.514,4.365-2.8,5.456a3.98,3.98,0,0,1-1.715.359M40.32,27.1a16.133,16.133,0,0,1-13.885,8.886l-2.383.144,1.135-2.1C29.353,26.324,35.632,25.173,39,25.173H41.3Z" transform="translate(10.893 10.893)" fill="#354bcf" style="fill: rgb(53, 75, 207);"></path>
        <path id="Tracé_57224" data-name="Tracé 57224" d="M42.946,24.309a.827.827,0,0,0-.514-.408,16.886,16.886,0,0,0-17.413,7.226L22.6,34.66v-14.1l1.716.525c4.28,1.317,7.348-3.223,7.919-4.147l.224-.384C37.7,7.176,33.679,2.776,33.505,2.594a.817.817,0,0,0-.411-.234,7.92,7.92,0,0,0-5.72,1.532l-1.1.726L25.54,3.527A7.292,7.292,0,0,0,22.012.536a.834.834,0,0,0-.481,0A7.329,7.329,0,0,0,18,3.528l-.736,1.09-1.1-.726C13.059,1.836,10.7,2.3,10.446,2.361a.817.817,0,0,0-.411.234c-.176.184-4.24,4.609,1.131,14.1,1.234,2.171,4.323,5.539,8.062,4.387l1.718-.529v14.11l-2.422-3.535A16.812,16.812,0,0,0,1.1,23.9a.826.826,0,0,0-.555,1.06A18.151,18.151,0,0,0,18.192,37.7c.444,0,.89-.018,1.326-.052l1.429-.109V48.674a.825.825,0,0,0,1.65,0V37.538l1.428.109c.437.034.883.052,1.327.052A18.15,18.15,0,0,0,43,24.964.826.826,0,0,0,42.946,24.309Zm-25.819,11.7A16.039,16.039,0,0,1,3.222,27.1l-.96-1.9L4.5,25.173c3.392,0,9.7,1.153,13.871,8.877l1.125,2.087ZM26.9,17.822c.222-.431.454-.876.521-1.07a5.514,5.514,0,0,0,.2-.751c.032-.135.064-.275.092-.41l.035-.184c.023-.116.043-.222.058-.323l.07-.48.091-1.3c0-.579-.027-1.229-.075-1.919-.008-.119-.019-.232-.032-.345l-.022-.229c-.044-.471-.094-.887-.153-1.274-.03-.2-.061-.392-.1-.582-.07-.39-.156-.786-.26-1.212l-.048-.2c-.023-.1-.04-.176-.061-.249l-.261-.958.688-.624a8.186,8.186,0,0,1,3.876-1.752l.99-.131.4.914c.893,2.033,1.3,5.615-1.819,11.134a7.86,7.86,0,0,1-1.032,1.559,16.981,16.981,0,0,1-2.369,2.1l-.062.025a1.657,1.657,0,0,1-.612.156.646.646,0,0,1-.344-.09.739.739,0,0,1-.31-.616C26.349,18.92,26.423,18.749,26.9,17.822Zm-8.943,1.917a.572.572,0,0,1-.561.431,1.678,1.678,0,0,1-.476-.1c-.072-.022-.147-.046-.223-.064l-.067-.032a33.164,33.164,0,0,1-3.047-2.607,7.311,7.311,0,0,1-.9-1.349c-.028-.052-.05-.092-.066-.12-3.375-5.96-2.7-9.542-2-11.146l.4-.91L12,3.97a8.125,8.125,0,0,1,3.9,1.746l.713.547-.245.866c-.017.078-.029.13-.043.179-.019.068-.038.152-.057.235l-.051.212c-.1.408-.186.8-.258,1.2-.036.2-.067.393-.1.592-.059.4-.109.814-.152,1.27L15.686,11c-.015.154-.027.27-.035.39-.049.7-.073,1.343-.073,1.957l.09,1.277a8.658,8.658,0,0,0,.761,2.488,14.468,14.468,0,0,0,1.342,2.163C17.994,19.58,18.028,19.627,17.961,19.739Zm3.819-.074a4.147,4.147,0,0,1-1.757-.368c-2.267-1.093-2.786-4.66-2.795-5.941A19.075,19.075,0,0,1,18.354,6.4a8.383,8.383,0,0,1,2.612-3.686l.8-.608.8.6a8.312,8.312,0,0,1,2.624,3.688,19.039,19.039,0,0,1,1.127,6.952c0,.126-.006.3-.022.5-.079,1-.514,4.365-2.8,5.456A3.98,3.98,0,0,1,21.78,19.665ZM40.32,27.1a16.133,16.133,0,0,1-13.885,8.886l-2.383.144,1.135-2.1C29.353,26.324,35.632,25.173,39,25.173H41.3Z" transform="translate(10.893 10.893)" fill="#354bcf" style="fill: rgb(53, 75, 207);"></path>
      </g>
    </g>
  </g>
</svg>