<svg viewBox="98.613 319.162 56.728 38.095" xmlns="http://www.w3.org/2000/svg" style="fill: rgb(53, 75, 207);">
  <defs>
    <clipPath id="clip-SVG_27">
      <rect width="58" height="58" style="fill: rgb(53, 75, 207);"></rect>
    </clipPath>
  </defs>
  <g id="SVG_27" data-name="SVG – 27" clip-path="url(#clip-SVG_27)" transform="matrix(1, 0, 0, 1, 97.971608, 309.329084)">
    <g id="Groupe_9020" data-name="Groupe 9020" transform="translate(4.803 14.111)">
      <g id="Groupe_9016" data-name="Groupe 9016" transform="translate(0 -0.001)">
        <path id="Tracé_57225" data-name="Tracé 57225" d="M45.516,14.714H5.5a.825.825,0,0,1-.841-.807V4.87A.825.825,0,0,1,5.5,4.062H45.516a.825.825,0,0,1,.841.808v9.037A.825.825,0,0,1,45.516,14.714ZM6.341,13.1H44.676V5.676H6.341Z" transform="translate(-1.311 -1.26)" fill="#354bcf" style="fill: rgb(53, 75, 207);"></path>
        <path id="Tracé_57226" data-name="Tracé 57226" d="M47.553,29.2H.841A.825.825,0,0,1,0,28.391V24.406A.825.825,0,0,1,.841,23.6H47.553a.824.824,0,0,1,.841.808v3.985A.825.825,0,0,1,47.553,29.2ZM1.682,27.584H46.705V25.212H1.682Z" transform="translate(0 -7.324)" fill="#354bcf" style="fill: rgb(53, 75, 207);"></path>
        <rect id="Rectangle_1338" data-name="Rectangle 1338" width="1.682" height="4.435" transform="translate(11.518 12.647)" fill="#354bcf" style="fill: rgb(53, 75, 207);"></rect>
        <rect id="Rectangle_1339" data-name="Rectangle 1339" width="1.682" height="4.435" transform="translate(8.367 12.647)" fill="#354bcf" style="fill: rgb(53, 75, 207);"></rect>
        <path id="Tracé_57227" data-name="Tracé 57227" d="M12.058,39.143H8.907a.825.825,0,0,1-.841-.808V30.173H9.749v7.355h1.474V30.173H12.9v8.162a.825.825,0,0,1-.841.808h-.006" transform="translate(-2.271 -9.365)" fill="#354bcf" style="fill: rgb(53, 75, 207);"></path>
        <path id="Tracé_57228" data-name="Tracé 57228" d="M16.483,3.609H14.8V1.614H13.323V3.609H11.648V.807A.824.824,0,0,1,12.489,0h3.15a.825.825,0,0,1,.841.807Z" transform="translate(-3.28 0)" fill="#354bcf" style="fill: rgb(53, 75, 207);"></path>
        <path id="Tracé_57229" data-name="Tracé 57229" d="M53.818,3.609H52.136V1.614H50.668V3.609H48.986V.807A.824.824,0,0,1,49.827,0H52.98a.824.824,0,0,1,.841.807Z" transform="translate(-13.793 0)" fill="#354bcf" style="fill: rgb(53, 75, 207);"></path>
        <path id="Tracé_57230" data-name="Tracé 57230" d="M56.56,39.143h-3.15a.825.825,0,0,1-.841-.808V30.173h1.683v7.355h1.468V30.173H57.4v8.162a.825.825,0,0,1-.841.808" transform="translate(-14.802 -9.365)" fill="#354bcf" style="fill: rgb(53, 75, 207);"></path>
        <rect id="Rectangle_1340" data-name="Rectangle 1340" width="1.682" height="4.435" transform="translate(38.342 12.647)" fill="#354bcf" style="fill: rgb(53, 75, 207);"></rect>
        <rect id="Rectangle_1341" data-name="Rectangle 1341" width="1.682" height="4.435" transform="translate(35.192 12.647)" fill="#354bcf" style="fill: rgb(53, 75, 207);"></rect>
      </g>
    </g>
  </g>
</svg>