<svg xmlns="http://www.w3.org/2000/svg" xmlns:xlink="http://www.w3.org/1999/xlink" width="36.9" height="32.011" viewBox="0 0 36.9 32.011">
  <defs>
    <clipPath id="clip-path">
      <rect id="Rectangle_1347" data-name="Rectangle 1347" width="36.9" height="32.011" transform="translate(0 0)" fill="#354bcf" stroke="#354bcf" stroke-width="0.2"/>
    </clipPath>
  </defs>
  <g id="Groupe_8724" data-name="Groupe 8724" transform="translate(0 0)">
    <g id="Groupe_8692" data-name="Groupe 8692" transform="translate(0 0)" clip-path="url(#clip-path)">
      <path id="Tracé_57256" data-name="Tracé 57256" d="M23.987,32.062c4.456-.212,9.224-2.413,11.6-5.353A5.008,5.008,0,0,0,36.912,22.8c-.305-1.831-2.723-3.765-3.457-4.313l-.022-.016v-.027a18.717,18.717,0,0,0-6.149-14A16.668,16.668,0,0,0,16.146.5a22.713,22.713,0,0,0-3.367.258A13.07,13.07,0,0,0,1.889,9.329,20.69,20.69,0,0,0,.539,17.191c-.054.8-.25,4.8,1.194,5.879.931.7,14.634,9,21.839,9h0c.143,0,.282,0,.413-.009M19.4,2.006a14.838,14.838,0,0,1,7.1,3.354,17.53,17.53,0,0,1,5.729,13.323l0,.016a6.82,6.82,0,0,1-1.185,2.248l-.091.114-.007-.145A23.222,23.222,0,0,0,24.545,5.776,17.926,17.926,0,0,0,19.364,2.11l-.4-.184Zm-6.976.048c.173-.034.353-.07.539-.1l.177-.024.133-.018.013.005a.607.607,0,0,0,.22.043A14.771,14.771,0,0,1,23.687,6.63a22.056,22.056,0,0,1,6.07,15.525v.027l-.022.017a12.55,12.55,0,0,1-5.871,2.174l-.07.01.007-.07c.612-5.874-1.844-13.143-6.113-18.087A13.727,13.727,0,0,0,12.27,2.187l-.185-.068Zm-9.885,8.9A12.034,12.034,0,0,1,9.525,2.9l.016-.007.017,0a.622.622,0,0,0,.142.018c2.275,0,4.786,1.457,7.07,4.1,4.03,4.668,6.467,12.009,5.794,17.455l-.005.044-.045,0c-.728.057-1.415.077-2.016.077-.523,0-.981-.015-1.345-.033-8.1-.409-16.727-4.1-17.407-7.45a18.67,18.67,0,0,1,.788-6.157m21.027,19.9c-6.523,0-19.652-7.671-21.1-8.759-.465-.348-.637-1.662-.7-2.414l-.013-.158.108.116c2.932,3.146,10.342,5.781,17.237,6.128.52.026,1.036.04,1.535.04,6.4,0,10.821-2.124,12.461-5.981l.029-.068.056.047c.7.57,2.347,2.022,2.542,3.191a3.868,3.868,0,0,1-1.077,2.947,15.47,15.47,0,0,1-10.711,4.9c-.119.006-.242.008-.367.008" transform="translate(-0.28 -0.28)" fill="#354bcf" stroke="#354bcf" stroke-width="0.2"/>
      <path id="Tracé_57257" data-name="Tracé 57257" d="M23.987,32.062c4.456-.212,9.224-2.413,11.6-5.353A5.008,5.008,0,0,0,36.912,22.8c-.305-1.831-2.723-3.765-3.457-4.313l-.022-.016v-.027a18.717,18.717,0,0,0-6.149-14A16.668,16.668,0,0,0,16.146.5a22.713,22.713,0,0,0-3.367.258A13.07,13.07,0,0,0,1.889,9.329,20.69,20.69,0,0,0,.539,17.191c-.054.8-.25,4.8,1.194,5.879.931.7,14.634,9,21.839,9h0C23.717,32.071,23.856,32.068,23.987,32.062ZM19.4,2.006a14.838,14.838,0,0,1,7.1,3.354,17.53,17.53,0,0,1,5.729,13.323l0,.016a6.82,6.82,0,0,1-1.185,2.248l-.091.114-.007-.145A23.222,23.222,0,0,0,24.545,5.776,17.926,17.926,0,0,0,19.364,2.11l-.4-.184Zm-6.976.048c.173-.034.353-.07.539-.1l.177-.024.133-.018.013.005a.607.607,0,0,0,.22.043A14.771,14.771,0,0,1,23.687,6.63a22.056,22.056,0,0,1,6.07,15.525v.027l-.022.017a12.55,12.55,0,0,1-5.871,2.174l-.07.01.007-.07c.612-5.874-1.844-13.143-6.113-18.087A13.727,13.727,0,0,0,12.27,2.187l-.185-.068Zm-9.885,8.9A12.034,12.034,0,0,1,9.525,2.9l.016-.007.017,0a.622.622,0,0,0,.142.018c2.275,0,4.786,1.457,7.07,4.1,4.03,4.668,6.467,12.009,5.794,17.455l-.005.044-.045,0c-.728.057-1.415.077-2.016.077-.523,0-.981-.015-1.345-.033-8.1-.409-16.727-4.1-17.407-7.45A18.67,18.67,0,0,1,2.535,10.957Zm21.027,19.9c-6.523,0-19.652-7.671-21.1-8.759-.465-.348-.637-1.662-.7-2.414l-.013-.158.108.116c2.932,3.146,10.342,5.781,17.237,6.128.52.026,1.036.04,1.535.04,6.4,0,10.821-2.124,12.461-5.981l.029-.068.056.047c.7.57,2.347,2.022,2.542,3.191a3.868,3.868,0,0,1-1.077,2.947,15.47,15.47,0,0,1-10.711,4.9C23.81,30.858,23.687,30.86,23.563,30.86Z" transform="translate(-0.28 -0.28)" fill="#354bcf" stroke="#354bcf" stroke-miterlimit="10" stroke-width="0.2"/>
    </g>
  </g>
</svg>
