<svg id="Calque_1" xmlns="http://www.w3.org/2000/svg" viewBox="0 0 38.69 38.69" style="fill: rgb(53, 75, 207);"><defs><style>.cls-1{fill:#354bcf;}</style></defs><g id="SVG_28"><g id="Icon"><g id="Icon-2"><path class="cls-1" d="M19.34,36.85c-.19,0-.39-.06-.55-.17-.58-.39-14.32-9.67-14.32-20.87,0-.85,.07-1.7,.21-2.54,.68-3.92,2.85-7.34,6.1-9.62C14.03,1.36,17.98,.48,21.89,1.16c7.11,1.24,12.28,7.36,12.32,14.57,0,.03,0,.05,0,.08,0,11.2-13.74,20.48-14.32,20.87-.17,.11-.36,.17-.55,.17Zm-.03-33.91c-2.63,0-5.19,.8-7.38,2.35-2.81,1.98-4.69,4.93-5.28,8.32-.12,.72-.18,1.47-.19,2.21,0,8.94,10.34,16.97,12.87,18.81,2.53-1.83,12.82-9.84,12.88-18.74,0-.02,0-.05,0-.07,0-6.27-4.49-11.6-10.67-12.68-.75-.13-1.5-.19-2.24-.19Z" style="fill: rgb(53, 75, 207);"></path><path class="cls-1" d="M19.34,21.43c-3.1,0-5.62-2.52-5.62-5.62s2.52-5.62,5.62-5.62,5.63,2.52,5.63,5.62-2.52,5.62-5.63,5.62Zm0-9.25c-2,0-3.62,1.63-3.62,3.62s1.63,3.62,3.62,3.62,3.63-1.63,3.63-3.62-1.63-3.62-3.63-3.62Z" style="fill: rgb(53, 75, 207);"></path></g></g></g></svg>