<svg viewBox="90.771 217.229 37.968 53.186" xmlns="http://www.w3.org/2000/svg" style="fill: rgb(53, 75, 207);">
  <defs>
    <clipPath id="clip-SVG_26">
      <rect width="58" height="58" style="fill: rgb(53, 75, 207);"></rect>
    </clipPath>
  </defs>
  <g id="SVG_26" data-name="SVG – 26" clip-path="url(#clip-SVG_26)" transform="matrix(1, 0, 0, 1, 80.62195, 214.69185)">
    <g id="Groupe_9024" data-name="Groupe 9024" transform="translate(14.015 4.941)">
      <g id="Groupe_9017" data-name="Groupe 9017" transform="translate(0 0)">
        <path id="Tracé_57242" data-name="Tracé 57242" d="M29.212,0H11.065a.758.758,0,0,0-.757.757V17.276H.757A.758.758,0,0,0,0,18.033V47.359a.758.758,0,0,0,.757.757H29.212a.758.758,0,0,0,.757-.757V.757A.758.758,0,0,0,29.212,0m-18.9,46.6H1.515V18.791h8.793Zm18.147,0H11.823V1.515H28.454Z" transform="translate(0 0)" fill="#354bcf" style="fill: rgb(53, 75, 207);"></path>
        <path id="Tracé_57243" data-name="Tracé 57243" d="M11.419,70.913a.689.689,0,0,0-.689-.689H6.085a.69.69,0,0,0-.689.689v4.646a.689.689,0,0,0,.689.689H10.73a.689.689,0,0,0,.689-.689ZM10.042,74.87H6.773V71.6h3.268Z" transform="translate(-2.423 -31.539)" fill="#354bcf" style="fill: rgb(53, 75, 207);"></path>
        <path id="Tracé_57244" data-name="Tracé 57244" d="M11.419,54.837a.689.689,0,0,0-.689-.689H6.085a.69.69,0,0,0-.689.689v4.646a.689.689,0,0,0,.689.689H10.73a.689.689,0,0,0,.689-.689Zm-1.377,3.957H6.773V55.525h3.268Z" transform="translate(-2.423 -24.319)" fill="#354bcf" style="fill: rgb(53, 75, 207);"></path>
        <path id="Tracé_57245" data-name="Tracé 57245" d="M11.419,38.762a.689.689,0,0,0-.689-.689H6.085a.689.689,0,0,0-.689.689v4.646a.69.69,0,0,0,.689.689H10.73a.689.689,0,0,0,.689-.689Zm-1.377,3.957H6.773V39.45h3.268Z" transform="translate(-2.423 -17.099)" fill="#354bcf" style="fill: rgb(53, 75, 207);"></path>
        <path id="Tracé_57246" data-name="Tracé 57246" d="M30.13,70.913a.69.69,0,0,0-.689-.689H24.8a.689.689,0,0,0-.689.689v4.646a.689.689,0,0,0,.689.689h4.646a.689.689,0,0,0,.689-.689ZM28.753,74.87H25.484V71.6h3.268Z" transform="translate(-10.827 -31.539)" fill="#354bcf" style="fill: rgb(53, 75, 207);"></path>
        <path id="Tracé_57247" data-name="Tracé 57247" d="M30.13,54.837a.69.69,0,0,0-.689-.689H24.8a.689.689,0,0,0-.689.689v4.646a.689.689,0,0,0,.689.689h4.646a.689.689,0,0,0,.689-.689Zm-1.377,3.957H25.484V55.525h3.268Z" transform="translate(-10.827 -24.319)" fill="#354bcf" style="fill: rgb(53, 75, 207);"></path>
        <path id="Tracé_57248" data-name="Tracé 57248" d="M30.13,38.762a.689.689,0,0,0-.689-.689H24.8a.689.689,0,0,0-.689.689v4.646a.689.689,0,0,0,.689.689h4.646a.69.69,0,0,0,.689-.689Zm-1.377,3.957H25.484V39.45h3.268Z" transform="translate(-10.827 -17.099)" fill="#354bcf" style="fill: rgb(53, 75, 207);"></path>
        <path id="Tracé_57249" data-name="Tracé 57249" d="M30.13,22.686A.69.69,0,0,0,29.441,22H24.8a.689.689,0,0,0-.689.689v4.646a.689.689,0,0,0,.689.689h4.646a.69.69,0,0,0,.689-.689Zm-1.377,3.958H25.484V23.374h3.268Z" transform="translate(-10.827 -9.879)" fill="#354bcf" style="fill: rgb(53, 75, 207);"></path>
        <path id="Tracé_57250" data-name="Tracé 57250" d="M30.13,6.611a.69.69,0,0,0-.689-.689H24.8a.689.689,0,0,0-.689.689v4.646a.689.689,0,0,0,.689.689h4.646a.689.689,0,0,0,.689-.689Zm-1.377,3.957H25.484V7.3h3.268Z" transform="translate(-10.827 -2.66)" fill="#354bcf" style="fill: rgb(53, 75, 207);"></path>
        <path id="Tracé_57251" data-name="Tracé 57251" d="M43.833,70.913a.689.689,0,0,0-.689-.689H38.5a.69.69,0,0,0-.689.689v4.646a.689.689,0,0,0,.689.689h4.646a.689.689,0,0,0,.689-.689ZM42.456,74.87H39.187V71.6h3.268Z" transform="translate(-16.981 -31.539)" fill="#354bcf" style="fill: rgb(53, 75, 207);"></path>
        <path id="Tracé_57252" data-name="Tracé 57252" d="M43.833,54.837a.689.689,0,0,0-.689-.689H38.5a.69.69,0,0,0-.689.689v4.646a.689.689,0,0,0,.689.689h4.646a.689.689,0,0,0,.689-.689Zm-1.377,3.957H39.187V55.525h3.268Z" transform="translate(-16.981 -24.319)" fill="#354bcf" style="fill: rgb(53, 75, 207);"></path>
        <path id="Tracé_57253" data-name="Tracé 57253" d="M43.833,38.762a.689.689,0,0,0-.689-.689H38.5a.689.689,0,0,0-.689.689v4.646a.69.69,0,0,0,.689.689h4.646a.689.689,0,0,0,.689-.689Zm-1.377,3.957H39.187V39.45h3.268Z" transform="translate(-16.981 -17.099)" fill="#354bcf" style="fill: rgb(53, 75, 207);"></path>
        <path id="Tracé_57254" data-name="Tracé 57254" d="M43.833,22.686A.689.689,0,0,0,43.144,22H38.5a.69.69,0,0,0-.689.689v4.646a.69.69,0,0,0,.689.689h4.646a.689.689,0,0,0,.689-.689Zm-1.377,3.958H39.187V23.374h3.268Z" transform="translate(-16.981 -9.879)" fill="#354bcf" style="fill: rgb(53, 75, 207);"></path>
        <path id="Tracé_57255" data-name="Tracé 57255" d="M43.833,6.611a.689.689,0,0,0-.689-.689H38.5a.69.69,0,0,0-.689.689v4.646a.689.689,0,0,0,.689.689h4.646a.689.689,0,0,0,.689-.689Zm-1.377,3.957H39.187V7.3h3.268Z" transform="translate(-16.981 -2.66)" fill="#354bcf" style="fill: rgb(53, 75, 207);"></path>
      </g>
    </g>
  </g>
</svg>